# xmcd
#
# Track frame offsets: 
#        150
#        63287
#        94557
#        122126
#        130765
#        137364
#        142687
#        151970
#        156046
#        163002
#        173697
#        191168
#        203780
#        213937
#        219463
#        232175
#        244405
#        252545
#        272628
#        289420
#        303891
#        331886
#
# Disc length: 4562 seconds
#
# Revision: 1
# Processed by: cddbd v1.5.2PL0 Copyright (c) Steve Scherf et al.
# Submitted via: ExactAudioCopy v0.99pb5
#
DISCID=4011d016
DTITLE=Various Artist - Les Rarissimes du Quintette  Vent de l'Orchestre Na
DTITLE=tional de la Radiodiffusion Fran먧aise CD2
DYEAR=1956
DGENRE=Classical
TTITLE0=Ludwin van Beethoven - Quintette pour piano and instruments  v
TTITLE0=ent en mi b먜mol majeur, op.16 - I.Grave - Allegro ma non trop
TTITLE0=po
TTITLE1=Ludwin van Beethoven - Quintette pour piano and instruments  v
TTITLE1=ent en mi b먜mol majeur, op.16 - II.Andante cantabile
TTITLE2=Ludwin van Beethoven - Quintette pour piano and instruments  v
TTITLE2=ent en mi b먜mol majeur, op.16 - III.Rondo멚allegro ma non tro
TTITLE2=ppo
TTITLE3=Darius Milhaud - La Chemin먜e du roi Ren먜, pour fl멊te, hautb
TTITLE3=ois, clarinette, cor and basson - I.Cort머ge
TTITLE4=Darius Milhaud - La Chemin먜e du roi Ren먜, pour fl멊te, hautb
TTITLE4=ois, clarinette, cor and basson - II.Aubade
TTITLE5=Darius Milhaud - La Chemin먜e du roi Ren먜, pour fl멊te, hautb
TTITLE5=ois, clarinette, cor and basson - III.Jongleurs
TTITLE6=Darius Milhaud - La Chemin먜e du roi Ren먜, pour fl멊te, hautb
TTITLE6=ois, clarinette, cor and basson - IV.La Maousinglade
TTITLE7=Darius Milhaud - La Chemin먜e du roi Ren먜, pour fl멊te, hautb
TTITLE7=ois, clarinette, cor and basson - V.Joutes sur l'Arc
TTITLE8=Darius Milhaud - La Chemin먜e du roi Ren먜, pour fl멊te, hautb
TTITLE8=ois, clarinette, cor and basson - VI.Chasse  Valabre
TTITLE9=Darius Milhaud - La Chemin먜e du roi Ren먜, pour fl멊te, hautb
TTITLE9=ois, clarinette, cor and basson - VII.Madrigal nocturne
TTITLE10=Darius Milhaud - Two Sketches - I.Madrigal
TTITLE11=Darius Milhaud - Two Sketches - II.Pastoral
TTITLE12=Jacques Ibert - Trois pi머ces br머ves pour fl멊te, hautbois, 
TTITLE12=clarinette, cor and basson - I.Allegro
TTITLE13=Jacques Ibert - Trois pi머ces br머ves pour fl멊te, hautbois, 
TTITLE13=clarinette, cor and basson - II.Andante
TTITLE14=Jacques Ibert - Trois pi머ces br머ves pour fl멊te, hautbois, 
TTITLE14=clarinette, cor and basson - III.Assez lent - Allegro scherzand
TTITLE14=o
TTITLE15=Paul Hindemith - Kleine Kammermusik, op.24 n묒2 - I.Gai
TTITLE16=Paul Hindemith - Kleine Kammermusik, op.24 n묒2 - II.Valse
TTITLE17=Paul Hindemith - Kleine Kammermusik, op.24 n묒2 - III.Tranqui
TTITLE17=lle et simplement
TTITLE18=Paul Hindemith - Kleine Kammermusik, op.24 n묒2 - IV.Tr머s vi
TTITLE18=f
TTITLE19=Alejandro Garc먝a Caturla - Premi머re Suite cubaine pour 8 in
TTITLE19=struments  vent and piano - I.Sonera
TTITLE20=Alejandro Garc먝a Caturla - Premi머re Suite cubaine pour 8 in
TTITLE20=struments  vent and piano - II.Comparsa
TTITLE21=Alejandro Garc먝a Caturla - Premi머re Suite cubaine pour 8 in
TTITLE21=struments  vent and piano - III.Danza
EXTD=
EXTT0=
EXTT1=
EXTT2=
EXTT3=
EXTT4=
EXTT5=
EXTT6=
EXTT7=
EXTT8=
EXTT9=
EXTT10=
EXTT11=
EXTT12=
EXTT13=
EXTT14=
EXTT15=
EXTT16=
EXTT17=
EXTT18=
EXTT19=
EXTT20=
EXTT21=
PLAYORDER=
